<?xml version="1.0" encoding="UTF-8"?>
<!-- Generator: visioncortex VTracer 0.6.3 -->
<svg version="1.1" xmlns="http://www.w3.org/2000/svg" width="1280" height="1087">
<path d="M0 0 C0.33 0.33 0.66 0.66 1 1 C3.26 1.07 5.51 1 7.77 0.94 C10 1 10 1 13 2 C15.21 2.47 17.41 2.93 19.62 3.38 C28.59 5.28 36.76 8 45 12 C45.89 12.43 45.89 12.43 46.8 12.87 C59.31 18.97 72.7 26.39 82 37 C82 37.66 82 38.32 82 39 C82.96 39.4 82.96 39.4 83.94 39.81 C86 41 86 41 87 44 C87.9 44.43 87.9 44.43 88.82 44.87 C91.76 46.39 92.98 48.36 94.88 51.06 C95.57 52.06 96.27 53.05 96.98 54.07 C97.98 55.52 97.98 55.52 99 57 C99.81 58.14 99.81 58.14 100.64 59.3 C112.64 76.54 120.13 97.84 120.17 118.92 C120.17 119.66 120.17 120.39 120.18 121.16 C120.18 122.71 120.19 124.27 120.19 125.82 C120.19 128.16 120.21 130.5 120.22 132.85 C120.27 144.53 119.08 155.41 115.62 166.62 C115.29 167.72 115.29 167.72 114.95 168.84 C114.32 170.9 113.66 172.95 113 175 C112.7 175.92 112.41 176.84 112.1 177.78 C108.55 187.55 102.62 197.02 96 205 C95.42 205.76 94.84 206.51 94.25 207.29 C83.42 221.28 70.77 231.28 55.75 240.34 C53.81 241.51 51.89 242.74 50 244 C50.92 249.64 51.93 255.26 52.94 260.88 C53.11 261.83 53.28 262.79 53.45 263.77 C54.19 267.88 54.95 271.93 56.06 275.95 C57.42 281.17 57.67 286.51 58.06 291.88 C58.22 293.94 58.37 296 58.54 298.05 C58.6 298.96 58.67 299.86 58.73 300.79 C58.88 303.04 58.88 303.04 60 305 C60.1 306.68 60.13 308.37 60.13 310.06 C60.13 311.64 60.13 311.64 60.14 313.26 C60.14 314.4 60.13 315.54 60.13 316.72 C60.13 317.89 60.13 319.06 60.14 320.26 C60.14 322.74 60.13 325.21 60.13 327.69 C60.13 331.48 60.13 335.28 60.14 339.08 C60.14 341.48 60.13 343.88 60.13 346.28 C60.13 347.42 60.14 348.57 60.14 349.74 C60.14 350.8 60.13 351.85 60.13 352.94 C60.13 354.34 60.13 354.34 60.13 355.76 C60 358 60 358 59 360 C58.73 362.01 58.51 364.02 58.32 366.04 C58.19 367.26 58.07 368.48 57.94 369.74 C57.69 372.31 57.44 374.87 57.19 377.44 C56.55 383.83 55.71 389.82 54 396 C53.55 398.46 53.11 400.91 52.69 403.38 C50.17 417.16 45.99 430.33 41.44 443.56 C41.06 444.66 40.69 445.75 40.3 446.88 C38.14 453.06 35.75 459.05 33 465 C32.39 466.39 31.79 467.79 31.19 469.19 C25.53 481.85 18.8 493.93 12 506 C11.34 506 10.68 506 10 506 C9.76 506.68 9.53 507.36 9.29 508.06 C7.71 511.66 5.64 514.82 3.44 518.06 C2.78 519.04 2.78 519.04 2.11 520.04 C-1.52 525.4 -5.35 530.58 -9.29 535.71 C-11.01 537.87 -11.01 537.87 -12 540 C-12.66 540 -13.32 540 -14 540 C-14.66 541.32 -15.32 542.64 -16 544 C-16.66 544 -17.32 544 -18 544 C-18.19 544.68 -18.37 545.36 -18.56 546.06 C-20.25 549.51 -22.34 551.5 -25.09 554.13 C-26.91 555.91 -28.55 557.75 -30.19 559.69 C-37.61 568.26 -45.69 576 -54.56 583.06 C-56.55 584.64 -58.47 586.26 -60.38 587.94 C-63.67 590.79 -67.11 593.46 -70.56 596.12 C-71.11 596.55 -71.65 596.97 -72.21 597.4 C-75.71 600.09 -79.31 602.57 -83 605 C-84.54 606.1 -86.09 607.2 -87.62 608.31 C-92.3 611.6 -97.12 614.49 -102.08 617.32 C-104.66 618.8 -107.17 620.36 -109.69 621.94 C-116.2 625.86 -123.13 628.94 -130.04 632.1 C-131.7 632.86 -133.36 633.64 -135.01 634.41 C-155.68 644.02 -176.92 649.91 -199.02 655.27 C-200.74 655.69 -202.45 656.12 -204.15 656.6 C-210.45 658.34 -216.89 658.88 -223.38 659.56 C-225.72 659.81 -228.06 660.06 -230.4 660.32 C-231.94 660.48 -231.94 660.48 -233.51 660.64 C-235.99 660.87 -235.99 660.87 -238 662 C-249.12 663.28 -260.39 663.11 -271.56 663.12 C-272.25 663.13 -272.94 663.13 -273.66 663.13 C-301.57 663.22 -301.57 663.22 -306 661 C-307.69 660.77 -309.38 660.58 -311.07 660.42 C-329.51 658.55 -347.29 655.5 -365 650 C-366.17 649.65 -367.34 649.3 -368.54 648.94 C-369.56 648.63 -370.58 648.32 -371.62 648 C-372.65 647.69 -373.67 647.38 -374.73 647.06 C-378.53 645.83 -382.26 644.43 -386 643 C-387.31 642.51 -388.62 642.02 -389.93 641.54 C-393.34 640.26 -396.75 638.98 -400.16 637.69 C-401.66 637.13 -403.16 636.58 -404.66 636.04 C-411.71 633.4 -418.24 629.79 -424.85 626.22 C-428.28 624.37 -431.74 622.62 -435.25 620.91 C-437.97 619.49 -440.46 617.73 -443 616 C-446.28 614.06 -449.61 612.22 -452.94 610.38 C-453.62 609.92 -454.3 609.47 -455 609 C-455 608.34 -455 607.68 -455 607 C-455.8 606.81 -456.61 606.63 -457.44 606.44 C-461.41 604.83 -464.1 602.77 -467.41 600.09 C-470.41 597.67 -473.48 595.36 -476.56 593.06 C-477.6 592.29 -478.63 591.52 -479.69 590.72 C-480.45 590.15 -481.22 589.59 -482 589 C-484.41 589.91 -484.41 589.91 -485.15 593.36 C-485.56 594.82 -485.97 596.28 -486.38 597.75 C-486.82 599.31 -487.26 600.87 -487.7 602.43 C-487.92 603.21 -488.14 603.98 -488.37 604.78 C-489.24 607.83 -490.18 610.85 -491.12 613.88 C-492.35 617.82 -493.5 621.76 -494.56 625.75 C-496.03 631.23 -497.82 636.57 -499.66 641.93 C-501.94 648.65 -503.94 655.44 -505.94 662.25 C-506.95 665.69 -507.96 669.12 -508.98 672.55 C-509.68 674.91 -510.36 677.28 -511.04 679.65 C-511.55 681.39 -511.55 681.39 -512.07 683.17 C-512.37 684.22 -512.67 685.27 -512.97 686.35 C-514.01 689.03 -514.72 690.29 -517 692 C-518.88 692.78 -518.88 692.78 -520.98 693.35 C-522.14 693.67 -522.14 693.67 -523.32 693.99 C-524.12 694.2 -524.92 694.41 -525.75 694.62 C-526.93 694.95 -526.93 694.95 -528.13 695.28 C-537.13 697.7 -545.83 698.19 -555.11 698.19 C-557.17 698.19 -559.22 698.21 -561.27 698.22 C-581.38 698.31 -599.9 692.69 -617 682 C-618 681 -619 680 -620 679 C-621.45 677.86 -622.9 676.73 -624.38 675.62 C-631.47 670.11 -631.47 670.11 -634 667 C-634.19 665 -634.19 665 -633 663 C-631.62 661.78 -630.24 660.55 -628.77 659.44 C-626.34 657.46 -624.2 655.24 -622 653 C-616.47 647.39 -610.97 641.86 -604.97 636.75 C-602.67 634.7 -600.53 632.52 -598.38 630.31 C-595.93 627.83 -593.65 625.59 -590.69 623.75 C-587.71 621.81 -586.2 619.78 -584 617 C-577.21 610.61 -577.21 610.61 -574 609 C-572.31 607.36 -570.65 605.69 -569 604 C-563.45 598.38 -557.93 592.82 -551.91 587.7 C-549.07 585.18 -546.47 582.45 -543.86 579.7 C-542 578 -542 578 -539.98 577.01 C-537.55 575.77 -536.34 574.29 -534.62 572.19 C-532.43 569.58 -530.28 567.26 -527.62 565.12 C-524.96 563.27 -524.96 563.27 -524 561 C-523.28 560.59 -522.56 560.18 -521.82 559.76 C-518.29 557.56 -515.68 554.86 -512.81 551.88 C-507.24 546.12 -507.24 546.12 -505 545 C-503.31 543.36 -501.65 541.69 -500 540 C-494.47 534.4 -488.99 528.86 -482.98 523.77 C-479.8 520.93 -476.9 517.82 -473.98 514.72 C-472 513 -472 513 -469 513 C-469 512.34 -469 511.68 -469 511 C-467.43 509.45 -467.43 509.45 -465.31 507.69 C-462.03 504.94 -459.02 502.03 -456 499 C-454.09 497.22 -452.18 495.45 -450.25 493.69 C-444.84 488.72 -439.47 483.72 -434.12 478.69 C-433.42 478.03 -432.72 477.37 -432 476.7 C-428.7 473.59 -425.44 470.46 -422.25 467.24 C-419.88 464.85 -417.46 462.6 -414.88 460.44 C-411.5 457.54 -408.73 454.5 -406 451 C-406.93 450.73 -407.86 450.46 -408.81 450.19 C-409.46 450 -410.1 449.81 -410.77 449.62 C-412.31 449.19 -413.86 448.79 -415.42 448.41 C-432.95 444.03 -447.06 435.46 -460 423 C-460.8 422.24 -461.59 421.49 -462.41 420.71 C-470.09 413.25 -476.86 405.39 -480 395 C-480.66 395 -481.32 395 -482 395 C-487.21 381.78 -487.21 381.78 -489 375 C-489.52 373.25 -490.04 371.5 -490.56 369.75 C-490.81 368.92 -491.06 368.09 -491.32 367.23 C-491.85 365.48 -492.42 363.74 -493 362 C-493.05 360.03 -493.04 358.06 -492.99 356.09 C-492.97 354.36 -492.97 354.36 -492.94 352.59 C-492.9 350.15 -492.84 347.71 -492.79 345.27 C-492.77 344.12 -492.76 342.97 -492.74 341.78 C-492.72 340.72 -492.7 339.66 -492.68 338.57 C-492.78 337.72 -492.89 336.87 -493 336 C-496.37 333.75 -498.33 333.5 -502.32 333 C-503.58 332.84 -504.84 332.67 -506.13 332.5 C-507.46 332.33 -508.79 332.17 -510.12 332 C-526.36 329.93 -526.36 329.93 -534 328 C-534.97 327.77 -535.94 327.53 -536.93 327.29 C-546.87 324.65 -555.89 320.73 -565 316 C-565 315.34 -565 314.68 -565 314 C-565.86 313.79 -566.72 313.57 -567.6 313.36 C-571.77 311.69 -574.21 309.42 -577.38 306.31 C-578.52 305.21 -579.67 304.12 -580.82 303.02 C-581.36 302.49 -581.91 301.97 -582.48 301.42 C-584.34 299.68 -586.32 298.09 -588.31 296.5 C-593.28 292.24 -596.78 286.65 -600 281 C-600 280.34 -600 279.68 -600 279 C-600.66 279 -601.32 279 -602 279 C-607.71 267.13 -611.9 255.83 -615 243 C-615.36 241.76 -615.71 240.52 -616.08 239.24 C-617.25 234.55 -617.26 230 -617.19 225.19 C-617.19 223.92 -617.19 223.92 -617.19 222.63 C-617.16 219.1 -617.13 216.38 -616 213 C-616.61 212.92 -617.23 212.84 -617.86 212.76 C-620.7 212.38 -623.54 212 -626.38 211.62 C-627.34 211.5 -628.31 211.37 -629.3 211.24 C-634.81 210.5 -640.25 209.61 -645.69 208.47 C-647.81 208.04 -649.92 207.65 -652.05 207.29 C-666.13 204.84 -677.87 200.61 -690 193 C-690.91 192.43 -691.83 191.86 -692.77 191.27 C-712.2 178.1 -728.33 157.67 -735 135 C-735.12 132.12 -735.12 132.12 -735 130 C-735.66 130 -736.32 130 -737 130 C-737.06 129.22 -737.12 128.44 -737.18 127.63 C-737.27 126.62 -737.35 125.61 -737.44 124.56 C-737.52 123.55 -737.6 122.54 -737.68 121.5 C-737.73 119.06 -737.73 119.06 -739 118 C-739.22 113.83 -739.19 109.66 -739.19 105.49 C-739.19 103.4 -739.21 101.32 -739.22 99.23 C-739.23 97.89 -739.23 96.55 -739.23 95.21 C-739.23 94 -739.24 92.78 -739.24 91.53 C-738.98 87.73 -738.34 84.56 -737 81 C-733.24 79.75 -730.2 80.32 -726.38 80.88 C-725.33 81.01 -725.33 81.01 -724.27 81.15 C-719.14 81.86 -719.14 81.86 -718 83 C-716 83.04 -714 83.04 -712 83 C-712 83.66 -712 84.32 -712 85 C-710.51 84.5 -710.51 84.5 -709 84 C-706.6 84.24 -704.2 84.57 -701.81 84.94 C-700.54 85.13 -699.27 85.33 -697.96 85.53 C-696.98 85.68 -696.01 85.84 -695 86 C-695 86.66 -695 87.32 -695 88 C-694.34 87.67 -693.68 87.34 -693 87 C-689.94 86.88 -689.94 86.88 -687 87 C-686.67 87.33 -686.34 87.66 -686 88 C-685.03 88 -684.06 88 -683.06 88 C-680 88 -680 88 -678 89 C-676.85 89.17 -675.69 89.33 -674.5 89.5 C-671 90 -671 90 -669 91 C-668.17 91 -667.35 91 -666.5 91 C-664 91 -664 91 -662 92 C-659.63 92.23 -657.25 92.41 -654.88 92.56 C-652.95 92.69 -652.95 92.69 -650.99 92.82 C-650 92.88 -649.02 92.94 -648 93 C-648 93.66 -648 94.32 -648 95 C-647.44 94.99 -646.89 94.98 -646.31 94.96 C-641.1 94.9 -636.15 95.17 -631 96 C-630.67 96.33 -630.34 96.66 -630 97 C-628.85 97 -627.69 97 -626.5 97 C-625.35 97 -624.19 97 -623 97 C-622.67 97.33 -622.34 97.66 -622 98 C-620.85 98 -619.69 98 -618.5 98 C-617.35 98 -616.19 98 -615 98 C-614.67 98.33 -614.34 98.66 -614 99 C-612.37 99.3 -610.73 99.54 -609.09 99.75 C-607.61 99.95 -607.61 99.95 -606.09 100.15 C-604.53 100.36 -604.53 100.36 -602.94 100.56 C-601.89 100.7 -600.85 100.84 -599.77 100.98 C-597.18 101.33 -594.59 101.66 -592 102 C-592 102.66 -592 103.32 -592 104 C-591.44 103.82 -590.87 103.65 -590.29 103.47 C-587.73 102.94 -585.88 103.12 -583.3 103.52 C-582.42 103.66 -581.54 103.79 -580.64 103.93 C-579.73 104.08 -578.81 104.22 -577.88 104.38 C-576.96 104.51 -576.04 104.65 -575.09 104.8 C-568.29 105.86 -568.29 105.86 -566 107 C-565.03 107 -564.06 107 -563.06 107 C-560 107 -560 107 -557 108 C-553.65 108.55 -550.29 109.02 -546.93 109.5 C-544 110 -544 110 -542 111 C-540 111.04 -538 111.04 -536 111 C-536 111.66 -536 112.32 -536 113 C-535.34 112.67 -534.68 112.34 -534 112 C-528.46 111.77 -528.46 111.77 -526 113 C-522.78 113.47 -519.56 113.87 -516.32 114.25 C-511.1 114.9 -511.1 114.9 -510 116 C-509.01 116 -508.02 116 -507 116 C-506.01 116 -505.02 116 -504 116 C-503.67 116.33 -503.34 116.66 -503 117 C-500.67 117.04 -498.33 117.04 -496 117 C-496 117.66 -496 118.32 -496 119 C-495.36 118.99 -494.72 118.98 -494.06 118.96 C-488.91 118.91 -484.07 119.12 -479 120 C-479 120.66 -479 121.32 -479 122 C-475.53 121.5 -475.53 121.5 -472 121 C-472 121.66 -472 122.32 -472 123 C-471.34 122.67 -470.68 122.34 -470 122 C-466.62 121.86 -464.23 121.92 -461 123 C-456.57 124.27 -452.64 125.14 -448 125 C-447.34 125.33 -446.68 125.66 -446 126 C-445.03 126 -444.06 126 -443.06 126 C-440 126 -440 126 -437 127 C-433.65 127.55 -430.29 128.02 -426.93 128.5 C-424 129 -424 129 -422 130 C-421.01 130 -420.02 130 -419 130 C-416 130 -416 130 -414 131 C-413.03 131 -412.06 131 -411.06 131 C-408 131 -408 131 -405 132 C-401.65 132.55 -398.29 133.02 -394.93 133.5 C-392 134 -392 134 -390 135 C-388.99 135 -387.98 135 -386.94 135 C-385.97 135 -385 135 -384 135 C-383.67 135.33 -383.34 135.66 -383 136 C-380.67 136.04 -378.33 136.04 -376 136 C-376 136.66 -376 137.32 -376 138 C-375.44 137.82 -374.87 137.65 -374.29 137.47 C-371.73 136.94 -369.88 137.12 -367.3 137.52 C-366.42 137.66 -365.54 137.79 -364.64 137.93 C-363.73 138.08 -362.81 138.22 -361.88 138.38 C-360.96 138.51 -360.04 138.65 -359.09 138.8 C-352.29 139.86 -352.29 139.86 -350 141 C-348 141.04 -346 141.04 -344 141 C-344 141.33 -344 141.66 -344 142 C-342.87 142.13 -341.74 142.27 -340.57 142.4 C-339.09 142.58 -337.61 142.76 -336.12 142.94 C-335.01 143.07 -335.01 143.07 -333.86 143.2 C-328.23 143.89 -328.23 143.89 -326 145 C-324 145.04 -322 145.04 -320 145 C-320 145.66 -320 146.32 -320 147 C-319.34 146.67 -318.68 146.34 -318 146 C-312.46 145.77 -312.46 145.77 -310 147 C-307.67 147.37 -305.34 147.69 -303 148 C-296.22 148.89 -296.22 148.89 -294 150 C-292.99 150 -291.98 150 -290.94 150 C-289.97 150 -289 150 -288 150 C-287.67 150.33 -287.34 150.66 -287 151 C-286.05 151 -285.1 151 -284.12 151 C-281 151 -281 151 -278 152 C-273.1 153.37 -269.11 154.12 -264 154 C-263.67 154.33 -263.34 154.66 -263 155 C-262.05 155 -261.1 155 -260.12 155 C-257 155 -257 155 -254 156 C-252.3 156.28 -250.6 156.53 -248.89 156.75 C-247.91 156.89 -246.93 157.02 -245.92 157.15 C-244.38 157.36 -244.38 157.36 -242.81 157.56 C-241.78 157.7 -240.74 157.84 -239.67 157.98 C-237.12 158.32 -234.56 158.66 -232 159 C-232 159.66 -232 160.32 -232 161 C-231.34 160.67 -230.68 160.34 -230 160 C-226.62 159.86 -224.23 159.92 -221 161 C-219.38 161.28 -217.75 161.53 -216.11 161.75 C-215.18 161.89 -214.24 162.02 -213.27 162.15 C-212.3 162.29 -211.32 162.42 -210.31 162.56 C-209.32 162.7 -208.34 162.84 -207.32 162.98 C-204.88 163.32 -202.44 163.66 -200 164 C-200 164.66 -200 165.32 -200 166 C-199.34 165.67 -198.68 165.34 -198 165 C-192.46 164.77 -192.46 164.77 -190 166 C-187.63 166.39 -185.25 166.74 -182.88 167.06 C-181.59 167.24 -180.31 167.42 -178.99 167.6 C-178 167.73 -177.02 167.86 -176 168 C-176 168.66 -176 169.32 -176 170 C-175.34 169.67 -174.68 169.34 -174 169 C-170.94 168.88 -170.94 168.88 -168 169 C-167.67 169.33 -167.34 169.66 -167 170 C-165.85 170 -164.69 170 -163.5 170 C-162.35 170 -161.19 170 -160 170 C-159.67 170.33 -159.34 170.66 -159 171 C-156.67 171.34 -154.33 171.67 -152 172 C-151.34 172.33 -150.68 172.66 -150 173 C-147.43 173.09 -147.43 173.09 -144.56 172.88 C-143.59 172.83 -142.63 172.79 -141.63 172.74 C-138.84 172.22 -138.84 172.22 -137.16 169.84 C-135.82 166.56 -135.7 164.21 -135.81 160.69 C-135.85 159.08 -135.85 159.08 -135.89 157.45 C-135.95 156.24 -135.95 156.24 -136 155 C-136.66 155 -137.32 155 -138 155 C-137.98 154.2 -137.96 153.39 -137.94 152.56 C-137.7 150.07 -137.7 150.07 -139 149 C-139.24 143.47 -139.24 143.47 -138 141 C-138.66 141 -139.32 141 -140 141 C-140.06 136.77 -140.09 132.54 -140.12 128.31 C-140.14 127.13 -140.16 125.95 -140.18 124.74 C-140.24 113.53 -139.06 102.81 -135.38 92.19 C-135.12 91.43 -134.86 90.68 -134.6 89.91 C-131.77 81.91 -128.07 74.43 -124 67 C-123.48 66.05 -122.97 65.11 -122.44 64.13 C-118.88 57.93 -114.63 52.43 -110 47 C-109.23 46.09 -108.45 45.18 -107.65 44.24 C-101.95 37.76 -95.85 32.24 -89 27 C-88.42 26.54 -87.84 26.08 -87.25 25.6 C-82.02 21.52 -76.52 18.4 -70.62 15.38 C-69.3 14.68 -69.3 14.68 -67.95 13.97 C-58.66 9.14 -49.83 5.64 -39.5 3.81 C-37.74 3.49 -35.98 3.16 -34.22 2.83 C-33.45 2.7 -32.69 2.56 -31.9 2.42 C-29.93 2.07 -29.93 2.07 -28 1 C-18.78 -0.16 -9.28 -0.42 0 0 Z M-15 1 C-11 2 -11 2 -11 2 Z M-139 114 C-138 116 -138 116 -138 116 Z M-616 216 C-616 217.65 -616 219.3 -616 221 C-615.67 221 -615.34 221 -615 221 C-615 219.35 -615 217.7 -615 216 C-615.33 216 -615.66 216 -616 216 Z M-616 231 C-615 235 -615 235 -615 235 Z M-405 451 C-404 453 -404 453 -404 453 Z " fill="#92CC3A" transform="translate(896,254)"/>
<path d="M0 0 C6.22 1.63 11.4 4.99 16.88 8.25 C19.03 9.52 21.18 10.79 23.34 12.06 C24.44 12.71 25.54 13.37 26.68 14.04 C31.92 17.13 37.18 20.19 42.44 23.25 C52.63 29.2 62.81 35.17 72.98 41.17 C85.96 48.82 98.98 56.41 112 64 C135.49 77.69 135.49 77.69 146.49 84.17 C152.65 87.8 158.82 91.4 165 95 C172.51 99.37 180 103.76 187.49 108.17 C194.69 112.41 201.91 116.61 209.13 120.82 C215.7 124.66 222.27 128.51 228.82 132.37 C234.94 135.98 241.08 139.53 247.23 143.07 C251.15 145.33 255.05 147.62 258.92 149.96 C264 153.02 269.15 155.95 274.31 158.88 C281.25 162.82 288.09 166.86 294.86 171.09 C298.38 173.23 301.96 175.25 305.56 177.25 C312.71 181.22 319.71 185.4 326.71 189.62 C332.61 193.18 338.55 196.63 344.54 200.03 C353.13 204.93 361.62 210 370.13 215.04 C386.26 224.58 402.44 234.06 418.68 243.44 C421.73 245.2 424.77 246.96 427.81 248.73 C429.3 249.59 430.78 250.45 432.27 251.31 C434.41 252.55 436.55 253.81 438.69 255.06 C439.33 255.43 439.97 255.8 440.64 256.18 C442.12 257.07 443.57 258.03 445 259 C445 259.66 445 260.32 445 261 C430.6 259.32 416.3 257.12 402 254.75 C384.27 251.82 366.51 249.09 348.73 246.49 C334.8 244.44 320.9 242.25 307 240 C304.84 239.65 302.68 239.3 300.52 238.95 C297.21 238.42 293.9 237.88 290.6 237.35 C268.36 233.75 246.11 230.23 223.84 226.88 C210.58 224.89 197.35 222.74 184.14 220.43 C173.78 218.62 163.41 216.97 152.99 215.47 C144.5 214.24 136.03 212.89 127.56 211.5 C116.45 209.68 105.33 208.02 94.18 206.46 C83.25 204.92 72.36 203.17 61.47 201.39 C59.27 201.04 57.07 200.74 54.86 200.45 C52 200 52 200 51 199 C50.69 193.52 51.48 188.62 52.69 183.31 C52.86 182.53 53.04 181.74 53.22 180.93 C54.78 174.29 57.15 168.2 60 162 C60.33 161.01 60.66 160.02 61 159 C60.07 158.47 59.14 157.94 58.18 157.39 C52.12 153.93 46.06 150.46 40 147 C40 146.01 40 145.02 40 144 C38.98 143.92 37.96 143.85 36.91 143.77 C32.61 142.92 29.81 141.33 26.38 138.75 C25.78 138.31 25.18 137.87 24.56 137.41 C1.68 120.08 -12.32 95.53 -16.49 67.16 C-19.45 44.29 -13.7 20.18 -1 1 C-0.67 0.67 -0.34 0.34 0 0 Z " fill="#020504" transform="translate(278,134)"/>
<path d="M0 0 C6.74 0.6 13.07 1.85 19.62 3.5 C31.06 6.31 42.52 8.99 54 11.62 C59.55 12.9 65.11 14.18 70.66 15.46 C72.26 15.83 73.85 16.2 75.45 16.56 C77.82 17.11 80.19 17.66 82.56 18.21 C83.28 18.38 84 18.54 84.75 18.71 C89.77 19.89 89.77 19.89 92 21 C91.68 25.18 90.29 27.12 87.2 29.89 C86.68 30.34 86.16 30.79 85.62 31.25 C85.09 31.73 84.55 32.21 83.99 32.7 C79.67 36.51 75.2 40.14 70.71 43.75 C67.89 46.09 65.19 48.52 62.5 51 C47.96 64.35 47.96 64.35 43 66 C42.51 67.49 42.51 67.49 42 69 C40.35 70.5 38.63 71.93 36.88 73.31 C33.51 75.98 30.23 78.66 27.06 81.56 C24 84 24 84 20 84 C19.91 84.59 19.82 85.17 19.73 85.78 C18.03 90.94 12.15 94.27 7.75 97.06 C5 98 5 98 2.75 97.56 C0.07 95.17 -0.3 93.58 -1 90 C-0.39 85.89 0.72 81.94 1.81 77.94 C4.06 69.17 5.94 61.08 6 52 C6.04 50.76 6.07 49.51 6.11 48.23 C6.44 33.91 4.3 20.29 0.8 6.45 C0 3 0 3 0 0 Z " fill="#020504" transform="translate(1030,309)"/>
<path d="M0 0 C0.33 0 0.66 0 1 0 C1 2.97 1 5.94 1 9 C0.67 9 0.34 9 0 9 C0 6.03 0 3.06 0 0 Z " fill="#020504" transform="translate(1017,377)"/>
<path d="M0 0 C0.33 0 0.66 0 1 0 C1 1.65 1 3.3 1 5 C0.67 5 0.34 5 0 5 C0 3.35 0 1.7 0 0 Z " fill="#020504" transform="translate(955,552)"/>
<path d="M0 0 C0.33 0 0.66 0 1 0 C1 1.65 1 3.3 1 5 C0.67 5 0.34 5 0 5 C0 3.35 0 1.7 0 0 Z " fill="#93CD3B" transform="translate(156,356)"/>
<path d="M0 0 C4 1 4 1 4 1 Z " fill="#020504" transform="translate(586,915)"/>
<path d="M0 0 C3 1 3 1 3 1 Z " fill="#020504" transform="translate(660,915)"/>
<path d="M0 0 C3 1 3 1 3 1 Z " fill="#020504" transform="translate(486,704)"/>
<path d="" fill="#020504" transform="translate(0,0)"/>
<path d="" fill="#020504" transform="translate(0,0)"/>
<path d="" fill="#93CD3B" transform="translate(0,0)"/>
<path d="M0 0 C2 1 2 1 2 1 Z " fill="#020504" transform="translate(398,588)"/>
<path d="M0 0 C2 1 2 1 2 1 Z " fill="#020504" transform="translate(367,583)"/>
<path d="" fill="#020504" transform="translate(0,0)"/>
<path d="M0 0 C2 1 2 1 2 1 Z " fill="#020504" transform="translate(254,463)"/>
<path d="" fill="#020504" transform="translate(0,0)"/>
<path d="" fill="#93CD3B" transform="translate(0,0)"/>
<path d="" fill="#020504" transform="translate(0,0)"/>
<path d="" fill="#93CD3B" transform="translate(0,0)"/>
<path d="" fill="#93CD3B" transform="translate(0,0)"/>
<path d="" fill="#020504" transform="translate(0,0)"/>
<path d="" fill="#020504" transform="translate(0,0)"/>
<path d="" fill="#93CD3B" transform="translate(0,0)"/>
<path d="" fill="#020504" transform="translate(0,0)"/>
</svg>
